# xmcd CD database file
#
# Track frame offsets:
#	150
#	3128
#	26527
#	48668
#	71692
#	92985
#	115572
#	130607
#	153800
#	175941
#	199621
#	221797
#
# Disc length: 2998 seconds
#
# Revision: 1
# Processed by: cddbd v1.5.2PL0 Copyright (c) Steve Scherf et al.
# Submitted via: CDex 1.70beta3
#
DISCID=980bb40c
DTITLE=Dixie Flatline - Fragments
DYEAR=2009
DGENRE=Vocaloid
TTITLE0=Dixie Flatline feat.初音ミク - イントロ
TTITLE1=Dixie Flatline feat.鏡音リン・レン - ジェミニ
TTITLE2=Dixie Flatline feat.鏡音リン・レン - ジュブナイル
TTITLE3=Dixie Flatline feat.初音ミク - メービウス
TTITLE4=Dixie Flatline feat.初音ミク - 東雲スクランブル
TTITLE5=Dixie Flatline feat.初音ミク - ジェイコブズ・ラダー
TTITLE6=Dixie Flatline feat.初音ミク - ミクランティカ
TTITLE7=Dixie Flatline feat.鏡音レン - 花曇
TTITLE8=Dixie Flatline feat.鏡音リン・レン - ジュブナイル (MS70's mix)
TTITLE9=Dixie Flatline feat.とぴ - ジェミニ (feat.とぴ)
TTITLE10=Dixie Flatline feat.初音ミク - Sweetiex2
TTITLE11=Dixie Flatline feat.鏡音リン・レン - アウトロ
EXTD=YEAR: 2009
EXTT0=
EXTT1=
EXTT2=
EXTT3=
EXTT4=
EXTT5=
EXTT6=
EXTT7=
EXTT8=
EXTT9=
EXTT10=
EXTT11=
PLAYORDER=
